<svg xmlns="http://www.w3.org/2000/svg" fill="none" viewBox="-1 -1 24 24"><path stroke="#0e43f0" stroke-linecap="round" stroke-linejoin="round" stroke-width="2" d="M11 8.25 3.725 12.98c-.63.41-.946.614-1.055.874a.92.92 0 0 0 0 .71M11 8.25l7.275 4.729c.63.41.946.614 1.055.874a.92.92 0 0 1 0 .71M11 8.25V2.292m0 11.458L3.725 9.021c-.63-.41-.946-.614-1.055-.874a.92.92 0 0 1 0-.71M11 13.75l7.275-4.729c.63-.41.946-.614 1.055-.874a.92.92 0 0 0 0-.71M11 13.75v5.958m8.5-5.066-7.7 5.005c-.29.188-.435.282-.59.319a.9.9 0 0 1-.42 0c-.155-.037-.3-.13-.59-.319l-7.7-5.005c-.243-.158-.365-.238-.453-.343a.9.9 0 0 1-.173-.319c-.04-.131-.04-.277-.04-.568V8.588c0-.291 0-.437.04-.568a.9.9 0 0 1 .173-.319c.088-.105.21-.185.454-.343l7.7-5.005c.289-.188.434-.282.59-.319a.9.9 0 0 1 .418 0c.156.037.3.13.59.319l7.7 5.005c.244.158.366.238.454.343a.9.9 0 0 1 .173.319c.04.131.04.277.04.568v4.824c0 .291 0 .437-.04.568a.9.9 0 0 1-.173.319c-.088.105-.21.185-.454.343"/></svg>