<svg xmlns="http://www.w3.org/2000/svg" fill="none" viewBox="-1 -1 24 24"><g clip-path="url(#a)"><path stroke="#0e43f0" stroke-linecap="round" stroke-linejoin="round" stroke-width="2" d="M19.443 14.566A9.168 9.168 0 1 1 7.333 2.594M19.47 7.492c.367.886.592 1.823.669 2.776.018.235.028.353-.019.459a.5.5 0 0 1-.201.218c-.102.055-.23.055-.484.055h-7.7c-.257 0-.385 0-.483-.05a.46.46 0 0 1-.2-.2c-.05-.098-.05-.227-.05-.483v-7.7c0-.255 0-.382.054-.484a.5.5 0 0 1 .219-.202c.106-.047.224-.037.459-.018a9.17 9.17 0 0 1 7.736 5.63"/></g><defs><clipPath id="a"><path fill="#fff" d="M0 0h22v22H0z"/></clipPath></defs></svg>