<svg xmlns="http://www.w3.org/2000/svg" fill="none" viewBox="-1 -1 24 24"><g clip-path="url(#a)"><path stroke="#0e43f0" stroke-linecap="round" stroke-linejoin="round" stroke-width="2" d="M8.25 1.833v1.834m5.5-1.834v1.834m-5.5 14.666v1.834m5.5-1.834v1.834M18.333 8.25h1.834m-1.834 4.583h1.834M1.833 8.25h1.834m-1.834 4.583h1.834m4.4 5.5h5.866c1.54 0 2.31 0 2.899-.3a2.75 2.75 0 0 0 1.201-1.201c.3-.588.3-1.359.3-2.899V8.067c0-1.54 0-2.31-.3-2.899a2.75 2.75 0 0 0-1.201-1.202c-.588-.3-1.359-.3-2.899-.3H8.067c-1.54 0-2.31 0-2.899.3a2.75 2.75 0 0 0-1.202 1.202c-.3.588-.3 1.359-.3 2.899v5.866c0 1.54 0 2.31.3 2.899a2.75 2.75 0 0 0 1.202 1.202c.588.3 1.358.3 2.899.3m1.65-4.583h2.566c.514 0 .77 0 .966-.1a.9.9 0 0 0 .401-.4c.1-.197.1-.453.1-.967V9.717c0-.514 0-.77-.1-.966a.9.9 0 0 0-.4-.401c-.197-.1-.453-.1-.967-.1H9.717c-.514 0-.77 0-.967.1a.9.9 0 0 0-.4.4c-.1.197-.1.453-.1.967v2.566c0 .514 0 .77.1.966a.9.9 0 0 0 .4.401c.197.1.453.1.967.1"/></g><defs><clipPath id="a"><path fill="#fff" d="M0 0h22v22H0z"/></clipPath></defs></svg>