<svg xmlns="http://www.w3.org/2000/svg" fill="none" viewBox="-1 -1 24 24"><path stroke="#0e43f0" stroke-linecap="round" stroke-linejoin="round" stroke-width="2" d="M16.042 15.583H5.958m10.084-3.666H5.958M2.75 8.25h16.5m-12.1-5.5h7.7c1.54 0 2.31 0 2.899.3a2.75 2.75 0 0 1 1.201 1.202c.3.588.3 1.358.3 2.898v7.7c0 1.54 0 2.31-.3 2.899a2.75 2.75 0 0 1-1.201 1.201c-.589.3-1.359.3-2.899.3h-7.7c-1.54 0-2.31 0-2.898-.3A2.75 2.75 0 0 1 3.05 17.75c-.3-.589-.3-1.359-.3-2.899v-7.7c0-1.54 0-2.31.3-2.898A2.75 2.75 0 0 1 4.252 3.05c.588-.3 1.358-.3 2.898-.3"/></svg>