<svg xmlns="http://www.w3.org/2000/svg" fill="none" viewBox="-1.5 0 24 15"><path stroke="#0e43f0" stroke-linecap="round" stroke-linejoin="round" stroke-width="2" d="M1.242 8.07c-.125-.197-.187-.296-.222-.449a1.1 1.1 0 0 1 0-.41c.035-.152.097-.25.222-.448C2.274 5.129 5.344 1 10.024 1s7.75 4.13 8.782 5.763c.125.198.187.296.222.449.026.114.026.295 0 .41-.035.152-.097.25-.222.448-1.032 1.634-4.103 5.763-8.782 5.763s-7.75-4.13-8.782-5.763"/><path stroke="#0e43f0" stroke-linecap="round" stroke-linejoin="round" stroke-width="2" d="M10.024 10.167a2.75 2.75 0 1 0 0-5.5 2.75 2.75 0 0 0 0 5.5"/></svg>