<svg xmlns="http://www.w3.org/2000/svg" fill="none" viewBox="-1.5 0 24 19"><path stroke="#0e43f0" stroke-linecap="round" stroke-linejoin="round" stroke-width="2" d="M8.871 2.918a8 8 0 0 1 1.153-.085c4.68 0 7.75 4.13 8.782 5.763.125.198.187.297.222.45.026.114.026.294 0 .409-.035.152-.098.252-.224.45a16 16 0 0 1-1.249 1.71M5.187 4.405C3.205 5.75 1.86 7.618 1.243 8.595c-.126.198-.188.298-.223.45a1.1 1.1 0 0 0 0 .41c.035.152.097.251.222.449 1.032 1.633 4.102 5.763 8.782 5.763 1.887 0 3.512-.672 4.848-1.58M1.773 1l16.5 16.5M8.079 7.305a2.75 2.75 0 1 0 3.89 3.889"/></svg>