<svg xmlns="http://www.w3.org/2000/svg" fill="none" viewBox="-1 -1 24 24"><path stroke="#0e43f0" stroke-linecap="round" stroke-linejoin="round" stroke-width="2" d="M2.218 11.654c-.124-.198-.187-.297-.222-.45a1.1 1.1 0 0 1 0-.409c.035-.152.098-.251.222-.449C3.25 8.713 6.321 4.583 11 4.583s7.75 4.13 8.782 5.763c.125.198.188.297.223.45.026.114.026.294 0 .409-.035.152-.098.251-.223.449-1.031 1.633-4.102 5.763-8.782 5.763s-7.75-4.13-8.782-5.763"/><path stroke="#0e43f0" stroke-linecap="round" stroke-linejoin="round" stroke-width="2" d="M11 13.75a2.75 2.75 0 1 0 0-5.5 2.75 2.75 0 0 0 0 5.5"/></svg>