<svg xmlns="http://www.w3.org/2000/svg" fill="none" viewBox="0 0 350 31"><path fill="#0e43f0" d="M15.119 31q-4.748 0-8.122-1.919t-5.206-5.373Q0 20.212 0 15.478q0-4.733 1.791-8.186 1.833-3.455 5.206-5.373Q10.372-.001 15.12 0q2.916 0 5.581.938t4.373 2.559L23.074 8.74q-1.875-1.493-3.79-2.174a10.9 10.9 0 0 0-3.957-.725q-4.165 0-6.33 2.516-2.166 2.473-2.166 7.12 0 4.65 2.165 7.164 2.166 2.517 6.331 2.516 2.082 0 3.957-.682 1.915-.724 3.79-2.217l2 5.244q-1.71 1.62-4.374 2.559a16.7 16.7 0 0 1-5.581.938"/><path fill="#1e1e1e" d="M29.347 20.596v-2.857H41.01v2.857zM47.041 30.53V.47h5.373l10.621 19.786h-1.416L72.198.468h5.29v30.062h-5.873V10.575h.916l-8.496 15.436H60.41l-8.538-15.479h1v19.999zM97.062 31q-3.249 0-5.956-1.109a13.1 13.1 0 0 1-4.581-3.155q-1.916-2.048-2.958-4.904-1-2.856-1-6.353 0-3.54 1-6.354 1.042-2.857 2.958-4.86a13.1 13.1 0 0 1 4.581-3.156Q93.813-.001 97.062 0q3.29 0 5.956 1.109t4.581 3.112 2.958 4.862q1.041 2.856 1.041 6.353 0 3.54-1.041 6.396-1.042 2.858-2.958 4.904a13.1 13.1 0 0 1-4.581 3.155q-2.665 1.11-5.956 1.109m0-5.629q2.499 0 4.207-1.15 1.707-1.195 2.624-3.412.958-2.26.958-5.33 0-3.113-.917-5.33-.916-2.218-2.665-3.37-1.75-1.15-4.207-1.15-2.415 0-4.165 1.15-1.75 1.152-2.666 3.37t-.916 5.33q0 3.07.916 5.33.917 2.217 2.666 3.411 1.749 1.151 4.165 1.151M116.592 30.53V.47h6.455v12.068h13.662V.469h6.455v30.062h-6.455V18.037h-13.662v12.494zM149.09 30.53V.47h5.998v20.596h-1L169.748.469h4.79v30.062h-5.997V9.893h.957l-15.66 20.638zM187.447 30.53V5.928h-9.705V.47h25.865v5.458h-9.705v24.604zM218.921 31q-3.249 0-5.956-1.109a13.1 13.1 0 0 1-4.582-3.155q-1.916-2.048-2.957-4.904-.999-2.856-.999-6.353 0-3.54.999-6.354 1.041-2.857 2.957-4.86a13.1 13.1 0 0 1 4.582-3.156q2.707-1.11 5.956-1.109 3.29 0 5.956 1.109t4.581 3.112q1.916 2.005 2.957 4.862 1.042 2.856 1.042 6.353 0 3.54-1.042 6.396-1.041 2.858-2.957 4.904a13.1 13.1 0 0 1-4.581 3.155q-2.666 1.11-5.956 1.109m0-5.629q2.499 0 4.206-1.15 1.708-1.195 2.624-3.412.958-2.26.958-5.33 0-3.113-.916-5.33t-2.666-3.37q-1.749-1.15-4.206-1.15-2.416 0-4.165 1.15-1.75 1.152-2.666 3.37t-.916 5.33q0 3.07.916 5.33.917 2.217 2.666 3.411 1.749 1.151 4.165 1.151M238.45 30.53V.47h13.412q3.29 0 5.581 1.151 2.29 1.152 3.457 3.284 1.208 2.13 1.208 5.16 0 3.027-1.208 5.201-1.167 2.133-3.457 3.284t-5.581 1.151h-6.956v10.83zm6.456-15.947h5.873q2.499 0 3.79-1.151 1.333-1.151 1.333-3.369t-1.333-3.326q-1.291-1.108-3.79-1.108h-5.873zM266.108 30.53V.47h5.998v20.596h-.999L286.767.469h4.79v30.062h-5.998V9.893h.958l-15.66 20.638zM297.468 30.53V.47h6.456v12.068h13.661V.469h6.456v30.062h-6.456V18.037h-13.661v12.494zM329.966 30.53V.47H350v5.458h-13.578v24.604z"/></svg>