<svg xmlns="http://www.w3.org/2000/svg" fill="none" viewBox="0 0 1292 261"><path fill="#777" d="M12.6 247.108q-.984 0-1.656-.504t-1.02-1.464q-.348-.972-.348-2.376 0-1.428.348-2.388t1.02-1.452 1.656-.492q.996 0 1.668.492.672.48 1.008 1.44.348.96.348 2.388 0 1.404-.348 2.376t-1.02 1.476-1.656.504m0-1.032q.924 0 1.356-.804.444-.804.444-2.52t-.444-2.496q-.432-.792-1.356-.792-.912 0-1.356.792-.444.78-.444 2.496t.444 2.52 1.356.804m4.915 2.4-.528-.408q.24-.252.36-.468a1.4 1.4 0 0 0 .18-.432q.06-.216.06-.432l.264.264h-.948v-1.428h1.428v.972q0 .36-.084.684a2.1 2.1 0 0 1-.252.624 2.7 2.7 0 0 1-.48.624m5.26-1.368q-.552 0-1.08-.12a4.8 4.8 0 0 1-.972-.336 3.1 3.1 0 0 1-.792-.528l.42-.96q.576.456 1.164.672t1.236.216q.828 0 1.296-.444t.468-1.188q0-.756-.444-1.236t-1.236-.48q-.564 0-1.008.228a2.35 2.35 0 0 0-.78.696h-.864v-5.088h5.04v1.044h-3.828v3.048h-.336q.324-.456.852-.708.54-.252 1.188-.252.804 0 1.392.336t.912.948q.324.6.324 1.404 0 .816-.36 1.44-.36.612-1.02.96t-1.572.348M10.404 229v-1.044h1.92v-6.36h.624l-2.124 1.32-.504-.924 2.364-1.452h.876v7.416h1.8V229zm7.111 1.476-.528-.408q.24-.252.36-.468a1.4 1.4 0 0 0 .18-.432q.06-.216.06-.432l.264.264h-.948v-1.428h1.428v.972q0 .36-.084.684a2.1 2.1 0 0 1-.252.624 2.7 2.7 0 0 1-.48.624m5.128-1.368q-.984 0-1.656-.504t-1.02-1.464q-.348-.972-.348-2.376 0-1.428.348-2.388t1.02-1.452 1.656-.492q.996 0 1.668.492.672.48 1.008 1.44.348.96.348 2.388 0 1.404-.348 2.376t-1.02 1.476-1.656.504m0-1.032q.924 0 1.356-.804.444-.804.444-2.52t-.444-2.496q-.432-.792-1.356-.792-.912 0-1.356.792-.444.78-.444 2.496t.444 2.52 1.356.804M10.02 175v-.924l2.82-3.024a7 7 0 0 0 .636-.792q.24-.372.348-.708.12-.348.12-.696 0-.672-.408-1.02t-1.2-.348a3 3 0 0 0-1.164.228q-.54.228-1.032.696l-.444-.948q.48-.468 1.224-.744a4.3 4.3 0 0 1 1.548-.288q.876 0 1.476.276.612.264.924.78t.312 1.26q0 .384-.096.756-.084.36-.276.72-.18.36-.468.744-.276.384-.672.792l-2.412 2.544v-.348h4.26V175zm7.495 1.476-.528-.408q.24-.252.36-.468a1.4 1.4 0 0 0 .18-.432q.06-.216.06-.432l.264.264h-.948v-1.428h1.428v.972q0 .36-.084.684a2.1 2.1 0 0 1-.252.624 2.7 2.7 0 0 1-.48.624m5.26-1.368q-.552 0-1.08-.12a4.8 4.8 0 0 1-.972-.336 3.1 3.1 0 0 1-.792-.528l.42-.96q.576.456 1.164.672t1.236.216q.828 0 1.296-.444t.468-1.188q0-.756-.444-1.236t-1.236-.48q-.564 0-1.008.228a2.35 2.35 0 0 0-.78.696h-.864v-5.088h5.04v1.044h-3.828v3.048h-.336q.324-.456.852-.708.54-.252 1.188-.252.804 0 1.392.336t.912.948q.324.6.324 1.404 0 .816-.36 1.44-.36.612-1.02.96t-1.572.348M13.368 121v-1.716H9.564v-.924l4.02-5.82h1.02v5.7h1.236v1.044h-1.236V121zm0-2.76v-4.212h.324l-3.12 4.548v-.336zm4.147 4.236-.528-.408q.24-.252.36-.468a1.4 1.4 0 0 0 .18-.432q.06-.216.06-.432l.264.264h-.948v-1.428h1.428v.972q0 .36-.084.684a2.1 2.1 0 0 1-.252.624 2.7 2.7 0 0 1-.48.624m5.128-1.368q-.984 0-1.656-.504t-1.02-1.464q-.348-.972-.348-2.376 0-1.428.348-2.388t1.02-1.452 1.656-.492q.996 0 1.668.492.672.48 1.008 1.44.348.96.348 2.388 0 1.404-.348 2.376t-1.02 1.476-1.656.504m0-1.032q.924 0 1.356-.804.444-.804.444-2.52t-.444-2.496q-.432-.792-1.356-.792-.912 0-1.356.792-.444.78-.444 2.496t.444 2.52 1.356.804M10.404 211v-1.044h1.92v-6.36h.624l-2.124 1.32-.504-.924 2.364-1.452h.876v7.416h1.8V211zm7.111 1.476-.528-.408q.24-.252.36-.468a1.4 1.4 0 0 0 .18-.432q.06-.216.06-.432l.264.264h-.948v-1.428h1.428v.972q0 .36-.084.684a2.1 2.1 0 0 1-.252.624 2.7 2.7 0 0 1-.48.624m5.26-1.368q-.552 0-1.08-.12a4.8 4.8 0 0 1-.972-.336 3.1 3.1 0 0 1-.792-.528l.42-.96q.576.456 1.164.672t1.236.216q.828 0 1.296-.444t.468-1.188q0-.756-.444-1.236t-1.236-.48q-.564 0-1.008.228a2.35 2.35 0 0 0-.78.696h-.864v-5.088h5.04v1.044h-3.828v3.048h-.336q.324-.456.852-.708.54-.252 1.188-.252.804 0 1.392.336t.912.948q.324.6.324 1.404 0 .816-.36 1.44-.36.612-1.02.96t-1.572.348M12.468 157.108q-.564 0-1.104-.108a5 5 0 0 1-.996-.336 3.6 3.6 0 0 1-.804-.54l.432-.96q.564.456 1.164.672t1.272.216q.576 0 .972-.168t.588-.492q.204-.324.204-.78 0-.684-.456-1.02-.444-.348-1.296-.348h-1.308V152.2h1.188q.516 0 .876-.168.36-.18.552-.492.204-.324.204-.78 0-.612-.408-.936-.396-.336-1.164-.336-.648 0-1.2.228a3.4 3.4 0 0 0-1.044.696l-.432-.948a3.3 3.3 0 0 1 1.224-.756 4.4 4.4 0 0 1 1.548-.276q.84 0 1.44.264.612.264.924.756.324.492.324 1.176 0 .768-.432 1.332-.42.552-1.164.732v-.132q.588.096.996.384t.624.732.216 1.02q0 .744-.36 1.296-.348.54-1.008.828t-1.572.288m5.047 1.368-.528-.408q.24-.252.36-.468a1.4 1.4 0 0 0 .18-.432q.06-.216.06-.432l.264.264h-.948v-1.428h1.428v.972q0 .36-.084.684a2.1 2.1 0 0 1-.252.624 2.7 2.7 0 0 1-.48.624m5.128-1.368q-.984 0-1.656-.504t-1.02-1.464q-.348-.972-.348-2.376 0-1.428.348-2.388t1.02-1.452 1.656-.492q.996 0 1.668.492.672.48 1.008 1.44.348.96.348 2.388 0 1.404-.348 2.376t-1.02 1.476-1.656.504m0-1.032q.924 0 1.356-.804.444-.804.444-2.52t-.444-2.496q-.432-.792-1.356-.792-.912 0-1.356.792-.444.78-.444 2.496t.444 2.52 1.356.804M13.368 103v-1.716H9.564v-.924l4.02-5.82h1.02v5.7h1.236v1.044h-1.236V103zm0-2.76v-4.212h.324l-3.12 4.548v-.336zm4.147 4.236-.528-.408q.24-.252.36-.468a1.4 1.4 0 0 0 .18-.432q.06-.216.06-.432l.264.264h-.948v-1.428h1.428v.972q0 .36-.084.684a2.1 2.1 0 0 1-.252.624 2.7 2.7 0 0 1-.48.624m5.26-1.368q-.552 0-1.08-.12a4.8 4.8 0 0 1-.972-.336 3.1 3.1 0 0 1-.792-.528l.42-.96q.576.456 1.164.672t1.236.216q.828 0 1.296-.444t.468-1.188q0-.756-.444-1.236t-1.236-.48q-.564 0-1.008.228a2.35 2.35 0 0 0-.78.696h-.864V94.54h5.04v1.044h-3.828v3.048h-.336q.324-.456.852-.708.54-.252 1.188-.252.804 0 1.392.336t.912.948q.324.6.324 1.404 0 .816-.36 1.44-.36.612-1.02.96t-1.572.348M10.02 193v-.924l2.82-3.024a7 7 0 0 0 .636-.792q.24-.372.348-.708.12-.348.12-.696 0-.672-.408-1.02t-1.2-.348a3 3 0 0 0-1.164.228q-.54.228-1.032.696l-.444-.948q.48-.468 1.224-.744a4.3 4.3 0 0 1 1.548-.288q.876 0 1.476.276.612.264.924.78t.312 1.26q0 .384-.096.756-.084.36-.276.72-.18.36-.468.744-.276.384-.672.792l-2.412 2.544v-.348h4.26V193zm7.495 1.476-.528-.408q.24-.252.36-.468a1.4 1.4 0 0 0 .18-.432q.06-.216.06-.432l.264.264h-.948v-1.428h1.428v.972q0 .36-.084.684a2.1 2.1 0 0 1-.252.624 2.7 2.7 0 0 1-.48.624m5.128-1.368q-.984 0-1.656-.504t-1.02-1.464q-.348-.972-.348-2.376 0-1.428.348-2.388t1.02-1.452 1.656-.492q.996 0 1.668.492.672.48 1.008 1.44.348.96.348 2.388 0 1.404-.348 2.376t-1.02 1.476-1.656.504m0-1.032q.924 0 1.356-.804.444-.804.444-2.52t-.444-2.496q-.432-.792-1.356-.792-.912 0-1.356.792-.444.78-.444 2.496t.444 2.52 1.356.804M12.468 139.108q-.564 0-1.104-.108a5 5 0 0 1-.996-.336 3.6 3.6 0 0 1-.804-.54l.432-.96q.564.456 1.164.672t1.272.216q.576 0 .972-.168t.588-.492q.204-.324.204-.78 0-.684-.456-1.02-.444-.348-1.296-.348h-1.308V134.2h1.188q.516 0 .876-.168.36-.18.552-.492.204-.324.204-.78 0-.612-.408-.936-.396-.336-1.164-.336-.648 0-1.2.228a3.4 3.4 0 0 0-1.044.696l-.432-.948a3.3 3.3 0 0 1 1.224-.756 4.4 4.4 0 0 1 1.548-.276q.84 0 1.44.264.612.264.924.756.324.492.324 1.176 0 .768-.432 1.332-.42.552-1.164.732v-.132q.588.096.996.384t.624.732.216 1.02q0 .744-.36 1.296-.348.54-1.008.828t-1.572.288m5.047 1.368-.528-.408q.24-.252.36-.468a1.4 1.4 0 0 0 .18-.432q.06-.216.06-.432l.264.264h-.948v-1.428h1.428v.972q0 .36-.084.684a2.1 2.1 0 0 1-.252.624 2.7 2.7 0 0 1-.48.624m5.26-1.368q-.552 0-1.08-.12a4.8 4.8 0 0 1-.972-.336 3.1 3.1 0 0 1-.792-.528l.42-.96q.576.456 1.164.672t1.236.216q.828 0 1.296-.444t.468-1.188q0-.756-.444-1.236t-1.236-.48q-.564 0-1.008.228a2.35 2.35 0 0 0-.78.696h-.864v-5.088h5.04v1.044h-3.828v3.048h-.336q.324-.456.852-.708.54-.252 1.188-.252.804 0 1.392.336t.912.948q.324.6.324 1.404 0 .816-.36 1.44-.36.612-1.02.96t-1.572.348M12.732 85.108q-.552 0-1.08-.12a4.8 4.8 0 0 1-.972-.336 3.1 3.1 0 0 1-.792-.528l.42-.96q.576.456 1.164.672t1.236.216q.828 0 1.296-.444t.468-1.188q0-.756-.444-1.236t-1.236-.48q-.564 0-1.008.228a2.35 2.35 0 0 0-.78.696h-.864V76.54h5.04v1.044h-3.828v3.048h-.336q.324-.456.852-.708.54-.252 1.188-.252.804 0 1.392.336t.912.948q.324.6.324 1.404 0 .816-.36 1.44-.36.612-1.02.96t-1.572.348m4.783 1.368-.528-.408q.24-.252.36-.468a1.4 1.4 0 0 0 .18-.432q.06-.216.06-.432l.264.264h-.948v-1.428h1.428v.972q0 .36-.084.684a2.1 2.1 0 0 1-.252.624 2.7 2.7 0 0 1-.48.624m5.128-1.368q-.984 0-1.656-.504t-1.02-1.464q-.348-.972-.348-2.376 0-1.428.348-2.388t1.02-1.452 1.656-.492q.996 0 1.668.492.672.48 1.008 1.44.348.96.348 2.388 0 1.404-.348 2.376t-1.02 1.476-1.656.504m0-1.032q.924 0 1.356-.804.444-.804.444-2.52t-.444-2.496q-.432-.792-1.356-.792-.912 0-1.356.792-.444.78-.444 2.496t.444 2.52 1.356.804M12.732 67.108q-.552 0-1.08-.12a4.8 4.8 0 0 1-.972-.336 3.1 3.1 0 0 1-.792-.528l.42-.96q.576.456 1.164.672t1.236.216q.828 0 1.296-.444t.468-1.188q0-.756-.444-1.236t-1.236-.48q-.564 0-1.008.228a2.35 2.35 0 0 0-.78.696h-.864V58.54h5.04v1.044h-3.828v3.048h-.336q.324-.456.852-.708.54-.252 1.188-.252.804 0 1.392.336t.912.948q.324.6.324 1.404 0 .816-.36 1.44-.36.612-1.02.96t-1.572.348m4.783 1.368-.528-.408q.24-.252.36-.468a1.4 1.4 0 0 0 .18-.432q.06-.216.06-.432l.264.264h-.948v-1.428h1.428v.972q0 .36-.084.684a2.1 2.1 0 0 1-.252.624 2.7 2.7 0 0 1-.48.624m5.26-1.368q-.552 0-1.08-.12a4.8 4.8 0 0 1-.972-.336 3.1 3.1 0 0 1-.792-.528l.42-.96q.576.456 1.164.672t1.236.216q.828 0 1.296-.444t.468-1.188q0-.756-.444-1.236t-1.236-.48q-.564 0-1.008.228a2.35 2.35 0 0 0-.78.696h-.864V58.54h5.04v1.044h-3.828v3.048h-.336q.324-.456.852-.708.54-.252 1.188-.252.804 0 1.392.336t.912.948q.324.6.324 1.404 0 .816-.36 1.44-.36.612-1.02.96t-1.572.348M12.9 49.108q-1.02 0-1.74-.492-.708-.492-1.092-1.416-.372-.936-.372-2.244 0-1.464.42-2.46.42-1.008 1.212-1.536t1.896-.528q.432 0 .876.12t.84.336q.408.216.696.528l-.432.936a3.1 3.1 0 0 0-.96-.648 2.6 2.6 0 0 0-1.044-.216q-.564 0-.996.204-.42.204-.72.612-.288.408-.444 1.008-.144.6-.144 1.404v1.02h-.132a2.6 2.6 0 0 1 .396-1.116q.324-.48.828-.732a2.46 2.46 0 0 1 1.116-.252q.744 0 1.308.348.576.336.9.948t.324 1.392a2.95 2.95 0 0 1-.348 1.44 2.53 2.53 0 0 1-.972.996q-.612.348-1.416.348m-.072-1.008q.492 0 .864-.216t.576-.6q.204-.396.204-.912t-.204-.9a1.5 1.5 0 0 0-.576-.6 1.6 1.6 0 0 0-.864-.228 1.6 1.6 0 0 0-.864.228q-.36.216-.576.6a1.9 1.9 0 0 0-.204.9q0 .516.204.912.216.384.588.6t.852.216m4.687 2.376-.528-.408q.24-.252.36-.468a1.4 1.4 0 0 0 .18-.432q.06-.216.06-.432l.264.264h-.948v-1.428h1.428v.972q0 .36-.084.684a2.1 2.1 0 0 1-.252.624 2.7 2.7 0 0 1-.48.624m5.128-1.368q-.984 0-1.656-.504t-1.02-1.464q-.348-.972-.348-2.376 0-1.428.348-2.388t1.02-1.452 1.656-.492q.996 0 1.668.492.672.48 1.008 1.44.348.96.348 2.388 0 1.404-.348 2.376t-1.02 1.476-1.656.504m0-1.032q.924 0 1.356-.804.444-.804.444-2.52t-.444-2.496q-.432-.792-1.356-.792-.912 0-1.356.792-.444.78-.444 2.496t.444 2.52 1.356.804"/><path fill="#d5d5d5" d="M0 260h1292v1H0z"/><path fill="#d5d5d5" d="M0 261V31h1v230z"/><path fill="#d9d9d9" d="M1 243v-1h4v1zM1 225v-1h4v1zM1 171v-1h4v1zM1 117v-1h4v1zM1 207v-1h4v1zM1 153v-1h4v1zM1 99v-1h4v1zM1 189v-1h4v1zM1 135v-1h4v1zM1 81v-1h4v1zM1 63v-1h4v1zM1 45v-1h4v1z"/><path fill="#b5b5b5" d="M41 189h14v71H41zM185 189h14v71h-14zM59 157h14v103H59zM203 157h14v103h-14zM77 134h14v126H77zM221 134h14v126h-14zM95 134h14v126H95zM239 134h14v126h-14zM113 74h14v186h-14zM131 74h14v186h-14zM149 103h14v157h-14zM167 148h14v112h-14zM1225 189h-14v71h14zM1261 45h-14v215h14zM1081 189h-14v71h14zM1243 96h-14v164h14zM1279 45h-14v215h14zM1207 157h-14v103h14zM1063 157h-14v103h14zM1189 134h-14v126h14zM1045 134h-14v126h14zM1171 134h-14v126h14zM1027 134h-14v126h14zM1153 74h-14v186h14zM1135 74h-14v186h14zM1117 103h-14v157h14zM1099 148h-14v112h14zM257 189h14v71h-14zM401 189h14v71h-14zM275 157h14v103h-14zM419 157h14v103h-14zM293 134h14v126h-14zM437 134h14v126h-14zM311 134h14v126h-14zM455 134h14v126h-14zM329 74h14v186h-14zM347 74h14v186h-14zM365 103h14v157h-14zM383 148h14v112h-14zM797 189h14v71h-14zM941 189h14v71h-14zM815 157h14v103h-14zM959 157h14v103h-14zM833 134h14v126h-14zM977 134h14v126h-14zM851 134h14v126h-14zM995 134h14v126h-14zM869 45h14v215h-14zM887 45h14v215h-14zM905 103h14v157h-14zM923 148h14v112h-14zM473 189h14v71h-14zM689 189h14v71h-14zM617 224h14v36h-14zM491 157h14v103h-14zM707 157h14v103h-14zM635 208h14v52h-14zM509 134h14v126h-14zM725 177h14v83h-14zM761 177h14v83h-14zM653 189h14v71h-14zM527 134h14v126h-14zM743 177h14v83h-14zM779 177h14v83h-14zM671 80h14v180h-14z"/><path fill="#0e43f0" d="M545 45h14v215h-14z"/><path fill="#b5b5b5" d="M563 62h14v198h-14zM581 103h14v157h-14zM599 148h14v112h-14z"/><g filter="url(#a)"><rect width="52" height="30" x="526" y="6" fill="#000" fill-opacity=".7" rx="8" shape-rendering="crispEdges"/><path fill="#000" fill-opacity=".7" d="m552 42 5-6h-10z"/><path fill="#fff" d="M541.006 26.14q-1.218 0-2.086-.574-.854-.588-1.302-1.68-.447-1.092-.448-2.646 0-1.68.504-2.842.505-1.176 1.456-1.792.953-.615 2.282-.616.519 0 1.036.14.532.126.994.378.477.238.84.588l-.588 1.344a3.5 3.5 0 0 0-1.106-.7 3.2 3.2 0 0 0-1.204-.238q-.601 0-1.078.224a2 2 0 0 0-.784.644q-.322.42-.49 1.064-.154.63-.154 1.47v1.05h-.168q.113-.714.462-1.218.365-.518.924-.784a2.75 2.75 0 0 1 1.246-.28q.855 0 1.512.406.658.406 1.036 1.12t.378 1.638q0 .952-.42 1.708-.405.743-1.148 1.176-.728.42-1.694.42m-.098-1.428q.504 0 .882-.224.392-.225.602-.63a2.1 2.1 0 0 0 .21-.952q0-.546-.21-.952t-.602-.63a1.6 1.6 0 0 0-.882-.238q-.504 0-.882.238-.377.225-.602.63-.21.406-.21.952 0 .532.21.952.225.405.602.63.378.224.882.224M549.604 26v-6.846h1.442l2.366 4.046 2.366-4.046h1.428V26h-1.54v-4.83h.336l-2.184 3.71h-.826l-2.184-3.71h.336V26zm9.626.994-1.316-.392 3.626-11.242 1.316.392zm6.691-.854q-1.078 0-1.876-.434a3.1 3.1 0 0 1-1.232-1.26q-.434-.812-.434-1.904t.434-1.876q.434-.798 1.232-1.218.798-.434 1.876-.434.659 0 1.302.21.644.21 1.064.588l-.518 1.218a2.6 2.6 0 0 0-.826-.49 2.5 2.5 0 0 0-.868-.168q-.91 0-1.414.574-.49.56-.49 1.61 0 1.036.49 1.638.504.588 1.414.588.406 0 .868-.168t.826-.504l.518 1.232q-.42.364-1.078.588-.644.21-1.288.21"/></g><defs><filter id="a" width="68" height="52" x="518" y="0" color-interpolation-filters="sRGB" filterUnits="userSpaceOnUse"><feFlood flood-opacity="0" result="BackgroundImageFix"/><feColorMatrix in="SourceAlpha" result="hardAlpha" values="0 0 0 0 0 0 0 0 0 0 0 0 0 0 0 0 0 0 127 0"/><feOffset dy="2"/><feGaussianBlur stdDeviation="4"/><feComposite in2="hardAlpha" operator="out"/><feColorMatrix values="0 0 0 0 0 0 0 0 0 0 0 0 0 0 0 0 0 0 0.25 0"/><feBlend in2="BackgroundImageFix" result="effect1_dropShadow_74_140"/><feBlend in="SourceGraphic" in2="effect1_dropShadow_74_140" result="shape"/></filter></defs></svg>